<mxfile host="65bd71144e">
    <diagram id="kgpw4xgnY-WigbxeGkCL" name="Página-1">
        <mxGraphModel dx="1391" dy="459" grid="1" gridSize="10" guides="1" tooltips="1" connect="1" arrows="1" fold="1" page="1" pageScale="1" pageWidth="827" pageHeight="1169" math="0" shadow="0">
            <root>
                <mxCell id="0"/>
                <mxCell id="1" parent="0"/>
                <mxCell id="4" value="" style="edgeStyle=none;html=1;fontColor=#1A1A1A;" edge="1" parent="1" source="2" target="3">
                    <mxGeometry relative="1" as="geometry"/>
                </mxCell>
                <mxCell id="2" value="&lt;b&gt;&lt;font color=&quot;#1a1a1a&quot;&gt;&lt;i&gt;INICIO&lt;/i&gt;&lt;/font&gt;&lt;/b&gt;" style="ellipse;whiteSpace=wrap;html=1;fillColor=#FF66B3;fontColor=#ffffff;strokeColor=none;gradientColor=#00994D;" vertex="1" parent="1">
                    <mxGeometry x="220" y="20" width="100" height="70" as="geometry"/>
                </mxCell>
                <mxCell id="9" value="" style="edgeStyle=none;html=1;fontColor=#000000;" edge="1" parent="1" source="3" target="8">
                    <mxGeometry relative="1" as="geometry"/>
                </mxCell>
                <mxCell id="3" value="&lt;font color=&quot;#000000&quot;&gt;&lt;b&gt;&lt;i&gt;opción x,y&amp;nbsp;&lt;/i&gt;&lt;/b&gt;&lt;/font&gt;" style="shape=parallelogram;perimeter=parallelogramPerimeter;whiteSpace=wrap;html=1;fixedSize=1;fillColor=#FF66B3;strokeColor=none;fontColor=#ffffff;gradientColor=#00994D;" vertex="1" parent="1">
                    <mxGeometry x="210" y="120" width="120" height="60" as="geometry"/>
                </mxCell>
                <mxCell id="11" value="" style="edgeStyle=none;html=1;fontColor=#000000;" edge="1" parent="1" source="8" target="10">
                    <mxGeometry relative="1" as="geometry">
                        <Array as="points">
                            <mxPoint x="440" y="255"/>
                        </Array>
                    </mxGeometry>
                </mxCell>
                <mxCell id="13" value="" style="edgeStyle=none;html=1;fontColor=#000000;" edge="1" parent="1" source="8" target="12">
                    <mxGeometry relative="1" as="geometry">
                        <Array as="points">
                            <mxPoint x="100" y="255"/>
                        </Array>
                    </mxGeometry>
                </mxCell>
                <mxCell id="8" value="&lt;b&gt;&lt;font color=&quot;#000000&quot;&gt;&lt;i&gt;opción ==1&lt;/i&gt;&lt;/font&gt;&lt;/b&gt;" style="rhombus;whiteSpace=wrap;html=1;fillColor=#FF66B3;strokeColor=none;fontColor=#ffffff;gradientColor=#00994D;" vertex="1" parent="1">
                    <mxGeometry x="225" y="210" width="90" height="90" as="geometry"/>
                </mxCell>
                <mxCell id="10" value="&lt;b&gt;&lt;i&gt;&lt;font color=&quot;#000000&quot;&gt;z = x + y&amp;nbsp;&lt;/font&gt;&lt;/i&gt;&lt;/b&gt;" style="rounded=1;whiteSpace=wrap;html=1;fillColor=#FF66B3;strokeColor=none;fontColor=#ffffff;gradientColor=#00994D;" vertex="1" parent="1">
                    <mxGeometry x="380" y="280" width="120" height="60" as="geometry"/>
                </mxCell>
                <mxCell id="17" value="" style="edgeStyle=none;html=1;fontColor=#000000;" edge="1" parent="1" source="12" target="16">
                    <mxGeometry relative="1" as="geometry">
                        <Array as="points">
                            <mxPoint x="220" y="330"/>
                        </Array>
                    </mxGeometry>
                </mxCell>
                <mxCell id="23" value="" style="edgeStyle=none;html=1;fontColor=#000000;" edge="1" parent="1" source="12" target="22">
                    <mxGeometry relative="1" as="geometry">
                        <Array as="points">
                            <mxPoint x="-50" y="330"/>
                        </Array>
                    </mxGeometry>
                </mxCell>
                <mxCell id="12" value="&lt;b&gt;&lt;i&gt;&lt;font color=&quot;#000000&quot;&gt;opción ==2&lt;/font&gt;&lt;/i&gt;&lt;/b&gt;" style="rhombus;whiteSpace=wrap;html=1;fillColor=#FF66B3;strokeColor=none;fontColor=#ffffff;gradientColor=#00994D;" vertex="1" parent="1">
                    <mxGeometry x="60" y="290" width="80" height="80" as="geometry"/>
                </mxCell>
                <mxCell id="16" value="&lt;b&gt;&lt;i&gt;&lt;font color=&quot;#000000&quot;&gt;z = x - y&lt;/font&gt;&lt;/i&gt;&lt;/b&gt;" style="whiteSpace=wrap;html=1;fillColor=#FF66B3;strokeColor=none;fontColor=#ffffff;gradientColor=#00994D;" vertex="1" parent="1">
                    <mxGeometry x="170" y="350" width="110" height="60" as="geometry"/>
                </mxCell>
                <mxCell id="25" value="" style="edgeStyle=none;html=1;fontColor=#000000;" edge="1" parent="1" source="22" target="24">
                    <mxGeometry relative="1" as="geometry">
                        <Array as="points">
                            <mxPoint x="65" y="390"/>
                        </Array>
                    </mxGeometry>
                </mxCell>
                <mxCell id="42" value="" style="edgeStyle=none;html=1;fontColor=#1A1A1A;" edge="1" parent="1" source="22" target="41">
                    <mxGeometry relative="1" as="geometry">
                        <Array as="points">
                            <mxPoint x="-190" y="390"/>
                        </Array>
                    </mxGeometry>
                </mxCell>
                <mxCell id="22" value="&lt;b&gt;&lt;i&gt;&lt;font color=&quot;#000000&quot;&gt;opción ==3&lt;/font&gt;&lt;/i&gt;&lt;/b&gt;" style="rhombus;whiteSpace=wrap;html=1;fillColor=#FF66B3;strokeColor=none;fontColor=#ffffff;gradientColor=#00994D;" vertex="1" parent="1">
                    <mxGeometry x="-90" y="350" width="80" height="80" as="geometry"/>
                </mxCell>
                <mxCell id="24" value="&lt;b&gt;&lt;i&gt;&lt;font color=&quot;#000000&quot;&gt;z = x * y&amp;nbsp;&lt;/font&gt;&lt;/i&gt;&lt;/b&gt;" style="whiteSpace=wrap;html=1;fillColor=#FF66B3;strokeColor=none;fontColor=#ffffff;gradientColor=#00994D;" vertex="1" parent="1">
                    <mxGeometry x="10" y="420" width="110" height="60" as="geometry"/>
                </mxCell>
                <mxCell id="49" value="" style="edgeStyle=none;html=1;fontColor=#000000;" edge="1" parent="1" source="41" target="48">
                    <mxGeometry relative="1" as="geometry">
                        <Array as="points">
                            <mxPoint x="-60" y="470"/>
                        </Array>
                    </mxGeometry>
                </mxCell>
                <mxCell id="51" value="" style="edgeStyle=none;html=1;fontColor=#000000;" edge="1" parent="1" source="41" target="50">
                    <mxGeometry relative="1" as="geometry">
                        <Array as="points">
                            <mxPoint x="-330" y="470"/>
                        </Array>
                    </mxGeometry>
                </mxCell>
                <mxCell id="41" value="&lt;b&gt;&lt;i&gt;&lt;font color=&quot;#000000&quot;&gt;opción ==4 and y&lt;br&gt;!=0&lt;/font&gt;&lt;/i&gt;&lt;/b&gt;" style="rhombus;whiteSpace=wrap;html=1;fillColor=#FF66B3;strokeColor=none;fontColor=#ffffff;gradientColor=#00994D;" vertex="1" parent="1">
                    <mxGeometry x="-250" y="420" width="120" height="100" as="geometry"/>
                </mxCell>
                <mxCell id="48" value="&lt;b&gt;&lt;i&gt;&lt;font color=&quot;#000000&quot;&gt;z =x/y&lt;/font&gt;&lt;/i&gt;&lt;/b&gt;" style="whiteSpace=wrap;html=1;fillColor=#FF66B3;strokeColor=none;fontColor=#ffffff;gradientColor=#00994D;" vertex="1" parent="1">
                    <mxGeometry x="-120" y="500" width="130" height="60" as="geometry"/>
                </mxCell>
                <mxCell id="53" value="" style="edgeStyle=none;html=1;fontColor=#000000;" edge="1" parent="1" source="50" target="52">
                    <mxGeometry relative="1" as="geometry">
                        <Array as="points">
                            <mxPoint x="-220" y="550"/>
                        </Array>
                    </mxGeometry>
                </mxCell>
                <mxCell id="59" value="" style="edgeStyle=none;html=1;fontColor=#000000;" edge="1" parent="1" source="50" target="58">
                    <mxGeometry relative="1" as="geometry">
                        <Array as="points">
                            <mxPoint x="-550" y="550"/>
                        </Array>
                    </mxGeometry>
                </mxCell>
                <mxCell id="50" value="&lt;b&gt;&lt;i&gt;&lt;font color=&quot;#000000&quot;&gt;opción ==4 and&amp;nbsp;&lt;br&gt;y = 0&lt;/font&gt;&lt;/i&gt;&lt;/b&gt;" style="rhombus;whiteSpace=wrap;html=1;fillColor=#FF66B3;strokeColor=none;fontColor=#ffffff;gradientColor=#00994D;" vertex="1" parent="1">
                    <mxGeometry x="-380" y="500" width="100" height="100" as="geometry"/>
                </mxCell>
                <mxCell id="55" value="" style="edgeStyle=none;html=1;fontColor=#1A1A1A;" edge="1" parent="1" source="52" target="54">
                    <mxGeometry relative="1" as="geometry"/>
                </mxCell>
                <mxCell id="52" value="&lt;b&gt;&lt;i&gt;&lt;font color=&quot;#1a1a1a&quot;&gt;El númerador es igual a cero y&amp;nbsp;&lt;/font&gt;&lt;/i&gt;&lt;/b&gt;" style="whiteSpace=wrap;html=1;fillColor=#FF66B3;strokeColor=none;fontColor=#ffffff;gradientColor=#00994D;" vertex="1" parent="1">
                    <mxGeometry x="-280" y="580" width="120" height="60" as="geometry"/>
                </mxCell>
                <mxCell id="54" value="&lt;font color=&quot;#000000&quot;&gt;&lt;b&gt;&lt;i&gt;No se puede realizar la opción&amp;nbsp;&lt;/i&gt;&lt;/b&gt;&lt;/font&gt;" style="whiteSpace=wrap;html=1;fillColor=#FF66B3;strokeColor=none;fontColor=#ffffff;gradientColor=#00994D;" vertex="1" parent="1">
                    <mxGeometry x="-280" y="680" width="120" height="60" as="geometry"/>
                </mxCell>
                <mxCell id="61" value="" style="edgeStyle=none;html=1;fontColor=#000000;" edge="1" parent="1" source="58" target="60">
                    <mxGeometry relative="1" as="geometry">
                        <Array as="points">
                            <mxPoint x="-450" y="625"/>
                        </Array>
                    </mxGeometry>
                </mxCell>
                <mxCell id="63" value="" style="edgeStyle=none;html=1;fontColor=#000000;" edge="1" parent="1" source="58" target="62">
                    <mxGeometry relative="1" as="geometry">
                        <Array as="points">
                            <mxPoint x="-710" y="625"/>
                        </Array>
                    </mxGeometry>
                </mxCell>
                <mxCell id="58" value="&lt;b&gt;&lt;i&gt;&lt;font color=&quot;#000000&quot;&gt;opción ==5&lt;/font&gt;&lt;/i&gt;&lt;/b&gt;" style="rhombus;whiteSpace=wrap;html=1;fillColor=#FF66B3;strokeColor=none;fontColor=#ffffff;gradientColor=#00994D;" vertex="1" parent="1">
                    <mxGeometry x="-590" y="585" width="80" height="80" as="geometry"/>
                </mxCell>
                <mxCell id="60" value="&lt;b&gt;&lt;i&gt;&lt;font color=&quot;#000000&quot;&gt;z = x ^ y&lt;/font&gt;&lt;/i&gt;&lt;/b&gt;" style="whiteSpace=wrap;html=1;fillColor=#FF66B3;strokeColor=none;fontColor=#ffffff;gradientColor=#00994D;" vertex="1" parent="1">
                    <mxGeometry x="-510" y="700" width="120" height="60" as="geometry"/>
                </mxCell>
                <mxCell id="65" value="" style="edgeStyle=none;html=1;fontColor=#000000;" edge="1" parent="1" source="62" target="64">
                    <mxGeometry relative="1" as="geometry">
                        <Array as="points">
                            <mxPoint x="-560" y="790"/>
                        </Array>
                    </mxGeometry>
                </mxCell>
                <mxCell id="62" value="&lt;b&gt;&lt;i&gt;&lt;font color=&quot;#000000&quot;&gt;opción ==6&lt;/font&gt;&lt;/i&gt;&lt;/b&gt;" style="rhombus;whiteSpace=wrap;html=1;fillColor=#FF66B3;strokeColor=none;fontColor=#ffffff;gradientColor=#00994D;" vertex="1" parent="1">
                    <mxGeometry x="-750" y="750" width="80" height="80" as="geometry"/>
                </mxCell>
                <mxCell id="66" style="edgeStyle=none;html=1;exitX=0.75;exitY=1;exitDx=0;exitDy=0;fontColor=#000000;" edge="1" parent="1" source="64">
                    <mxGeometry relative="1" as="geometry">
                        <mxPoint x="-510" y="890" as="targetPoint"/>
                    </mxGeometry>
                </mxCell>
                <mxCell id="64" value="z = x&amp;nbsp;" style="whiteSpace=wrap;html=1;fillColor=#FF66B3;strokeColor=none;fontColor=#ffffff;gradientColor=#00994D;" vertex="1" parent="1">
                    <mxGeometry x="-620" y="840" width="120" height="60" as="geometry"/>
                </mxCell>
                <mxCell id="67" value="&lt;b&gt;&lt;i&gt;&lt;font color=&quot;#ffcce6&quot;&gt;True&lt;/font&gt;&lt;/i&gt;&lt;/b&gt;" style="text;html=1;align=center;verticalAlign=middle;resizable=0;points=[];autosize=1;strokeColor=none;fillColor=none;fontColor=#000000;" vertex="1" parent="1">
                    <mxGeometry x="390" y="230" width="40" height="20" as="geometry"/>
                </mxCell>
                <mxCell id="68" value="&lt;b&gt;&lt;i&gt;False&lt;/i&gt;&lt;/b&gt;" style="text;html=1;align=center;verticalAlign=middle;resizable=0;points=[];autosize=1;strokeColor=none;fillColor=none;fontColor=#FFCCE6;" vertex="1" parent="1">
                    <mxGeometry x="155" y="230" width="50" height="20" as="geometry"/>
                </mxCell>
                <mxCell id="69" value="&lt;b&gt;&lt;i&gt;True&lt;/i&gt;&lt;/b&gt;" style="text;html=1;align=center;verticalAlign=middle;resizable=0;points=[];autosize=1;strokeColor=none;fillColor=none;fontColor=#FFCCE6;" vertex="1" parent="1">
                    <mxGeometry x="160" y="310" width="40" height="20" as="geometry"/>
                </mxCell>
                <mxCell id="70" value="&lt;b&gt;&lt;i&gt;False&lt;/i&gt;&lt;/b&gt;" style="text;html=1;align=center;verticalAlign=middle;resizable=0;points=[];autosize=1;strokeColor=none;fillColor=none;fontColor=#FFCCE6;" vertex="1" parent="1">
                    <mxGeometry x="5" y="310" width="50" height="20" as="geometry"/>
                </mxCell>
                <mxCell id="71" value="&lt;b&gt;&lt;i&gt;True&lt;/i&gt;&lt;/b&gt;" style="text;html=1;align=center;verticalAlign=middle;resizable=0;points=[];autosize=1;strokeColor=none;fillColor=none;fontColor=#FFCCE6;" vertex="1" parent="1">
                    <mxGeometry x="10" y="370" width="40" height="20" as="geometry"/>
                </mxCell>
                <mxCell id="72" value="&lt;b&gt;&lt;i&gt;False&lt;/i&gt;&lt;/b&gt;" style="text;html=1;align=center;verticalAlign=middle;resizable=0;points=[];autosize=1;strokeColor=none;fillColor=none;fontColor=#FFCCE6;" vertex="1" parent="1">
                    <mxGeometry x="-170" y="370" width="50" height="20" as="geometry"/>
                </mxCell>
                <mxCell id="73" value="&lt;b&gt;&lt;i&gt;True&lt;/i&gt;&lt;/b&gt;" style="text;html=1;align=center;verticalAlign=middle;resizable=0;points=[];autosize=1;strokeColor=none;fillColor=none;fontColor=#FFCCE6;" vertex="1" parent="1">
                    <mxGeometry x="-110" y="450" width="40" height="20" as="geometry"/>
                </mxCell>
                <mxCell id="74" value="&lt;b&gt;&lt;i&gt;false&lt;/i&gt;&lt;/b&gt;" style="text;html=1;align=center;verticalAlign=middle;resizable=0;points=[];autosize=1;strokeColor=none;fillColor=none;fontColor=#FFCCE6;" vertex="1" parent="1">
                    <mxGeometry x="-320" y="450" width="40" height="20" as="geometry"/>
                </mxCell>
                <mxCell id="75" value="&lt;b&gt;True&lt;/b&gt;" style="text;html=1;align=center;verticalAlign=middle;resizable=0;points=[];autosize=1;strokeColor=none;fillColor=none;fontColor=#FFCCE6;" vertex="1" parent="1">
                    <mxGeometry x="-260" y="530" width="40" height="20" as="geometry"/>
                </mxCell>
                <mxCell id="76" value="&lt;b&gt;&lt;i&gt;False&lt;/i&gt;&lt;/b&gt;" style="text;html=1;align=center;verticalAlign=middle;resizable=0;points=[];autosize=1;strokeColor=none;fillColor=none;fontColor=#FFCCE6;" vertex="1" parent="1">
                    <mxGeometry x="-475" y="530" width="50" height="20" as="geometry"/>
                </mxCell>
                <mxCell id="77" value="&lt;b&gt;&lt;i&gt;True&lt;/i&gt;&lt;/b&gt;" style="text;html=1;align=center;verticalAlign=middle;resizable=0;points=[];autosize=1;strokeColor=none;fillColor=none;fontColor=#FFCCE6;" vertex="1" parent="1">
                    <mxGeometry x="-510" y="600" width="40" height="20" as="geometry"/>
                </mxCell>
                <mxCell id="78" value="&lt;b&gt;&lt;i&gt;False&lt;/i&gt;&lt;/b&gt;" style="text;html=1;align=center;verticalAlign=middle;resizable=0;points=[];autosize=1;strokeColor=none;fillColor=none;fontColor=#FFCCE6;" vertex="1" parent="1">
                    <mxGeometry x="-665" y="600" width="50" height="20" as="geometry"/>
                </mxCell>
                <mxCell id="79" value="&lt;b&gt;&lt;i&gt;True&lt;/i&gt;&lt;/b&gt;" style="text;html=1;align=center;verticalAlign=middle;resizable=0;points=[];autosize=1;strokeColor=none;fillColor=none;fontColor=#FFCCE6;" vertex="1" parent="1">
                    <mxGeometry x="-630" y="760" width="40" height="20" as="geometry"/>
                </mxCell>
            </root>
        </mxGraphModel>
    </diagram>
</mxfile>